<svg width="261" height="276" viewBox="0 0 261 276" fill="none" xmlns="http://www.w3.org/2000/svg">
<path opacity="0.2" fill-rule="evenodd" clip-rule="evenodd" d="M84.5112 2.01778C79.8231 2.94806 71.8778 5.04668 66.8549 6.68017C61.8321 8.31365 53.7077 10.2536 48.8018 10.991C34.6183 13.1201 19.8017 21.5415 8.01954 34.1686C1.46603 41.1933 0.572257 43.2956 6.13458 38.6039C10.1529 35.2136 19.2951 30.1398 20.0391 30.887C20.2802 31.1287 18.3868 33.3604 15.8309 35.8473C6.09317 45.3222 -0.140076 63.6959 0.00239163 82.5041L0.0864112 93.4917L1.71809 86.777C3.80152 78.208 7.31084 70.2127 11.3352 64.8642L14.5024 60.6547L13.7584 71.5788C13.2397 79.1822 13.8193 89.7425 15.6628 106.31C18.4647 131.485 18.2516 137.995 14.3794 145.606C11.977 150.325 11.4424 154.762 12.9913 157.11C13.4832 157.856 15.6507 159.372 17.8072 160.48C19.9649 161.588 22.3125 163.587 23.0261 164.923C23.9576 166.67 25.5759 167.352 28.7845 167.352C32.256 167.352 32.9221 167.678 31.786 168.818C29.66 170.949 29.9486 172.879 33.5724 180.794C38.482 191.518 42.8936 193.622 60.1578 193.477C68.0677 193.41 76.9482 192.537 81.8469 191.346C86.4095 190.236 90.4449 189.328 90.815 189.328C91.9572 189.328 89.9797 202.889 87.4652 212.307C83.7879 226.081 81.1687 230.201 71.6708 237.149C61.2524 244.771 59.7998 249.796 69.4644 244.786C74.4556 242.197 75.3141 243.537 71.3323 247.702C67.3347 251.886 67.2592 252.811 70.9159 252.811C72.539 252.811 75.1546 251.24 77.0127 249.149C80.7607 244.932 83.4834 244.151 81.5035 247.86C80.8058 249.166 79.6916 250.571 79.0256 250.984C77.1844 252.125 77.579 255.253 79.5638 255.253C80.5257 255.253 83.3252 253.193 85.7824 250.675C90.1685 246.182 90.7675 246.795 88.1715 253.116C86.8954 256.225 89.1054 255.769 95.1524 251.677C99.6346 248.645 100.767 246.998 102.611 240.828L104.783 233.554L101.598 227.006C97.9396 219.491 99.5421 221.245 106.16 232.003C108.692 236.116 111.273 239.165 111.899 238.778C113.913 237.53 115.546 229.249 115.632 219.849C115.746 207.441 117.925 212.68 118.116 225.82C118.295 238.103 115.15 244.552 102.517 257.811C95.6723 264.993 93.5974 267.903 94.6032 268.912C95.609 269.92 97.1201 269.396 100.365 266.916C105.665 262.862 107.246 263.707 103.603 268.648C100.575 272.755 100.302 274.33 102.472 275.177C103.31 275.503 106.003 273.49 108.46 270.702C110.916 267.914 113.346 266.054 113.858 266.568C114.371 267.082 114.142 268.152 113.349 268.947C111.77 270.531 111.358 276.018 112.822 275.989C114.663 275.951 116.487 274.083 118.467 270.208C121.665 263.953 124.173 265.082 121.681 271.655C119.882 276.398 122.526 275.631 128.605 269.649C132.94 265.383 133.827 263.724 133.827 259.871C133.827 256.694 134.935 253.699 137.343 250.366C144.003 241.149 145.934 228.514 142.942 213.744C142.4 211.069 142.543 211.145 144.093 214.355C148.637 223.766 147.417 238.375 141.101 250.155L137.616 256.656L141.717 258.373C147.012 260.592 165.373 263.799 172.775 263.799H178.528L179.219 255.558C179.917 247.256 183.643 230.32 184.567 231.248C184.841 231.522 184.497 235.317 183.801 239.68C182.502 247.834 183.449 256.801 186.229 262.666C188.791 268.072 194.215 271.311 201.87 272.007C211.006 272.837 215.771 271.192 225.857 263.727C230.341 260.41 234.523 257.695 235.154 257.695C238.169 257.695 243.249 264.891 244.06 270.314C245.1 277.266 247.444 277.747 253.65 272.284C260.032 266.665 261.067 262.19 260.997 240.509C260.929 219.553 259.729 214.219 254.807 212.98C250.152 211.808 245.557 214.506 233.555 225.452C222.054 235.943 218.154 238.397 225.654 230.423C233.583 221.994 237.046 205.974 233.504 194.116C230.302 183.402 220.234 176.006 207.451 174.977C197.968 174.214 189.389 176.084 177.323 181.546C170.435 184.664 166.035 185.885 161.803 185.852C156.228 185.809 148.397 182.99 148.474 181.055C148.492 180.569 152.74 177.699 157.911 174.677C171.062 166.992 190.224 147.726 196.213 136.166C205.772 117.716 208.659 94.6637 203.85 75.179C200.985 63.5689 193.278 48.0251 185.353 37.8677C162.507 8.59444 122.695 -5.55875 84.5112 2.01778Z" fill="#89D2C4"/>
</svg>
