<svg width="141" height="69" viewBox="0 0 141 69" fill="none" xmlns="http://www.w3.org/2000/svg">
<path d="M19.89 23H16.05V13.49H6.63V23H2.79V1.58H6.63V10.22H16.05V1.58H19.89V23ZM31.6458 6.44C33.8258 6.44 35.5458 7.09 36.8058 8.39C38.0858 9.69 38.7258 11.5 38.7258 13.82V15.74H27.9858C28.0258 17.22 28.4358 18.37 29.2158 19.19C29.9958 19.99 31.0758 20.39 32.4558 20.39C33.4958 20.39 34.4358 20.29 35.2758 20.09C36.1158 19.87 36.9758 19.56 37.8558 19.16V22.19C37.0558 22.57 36.2258 22.85 35.3658 23.03C34.5058 23.21 33.4758 23.3 32.2758 23.3C30.6958 23.3 29.2858 23 28.0458 22.4C26.8258 21.78 25.8658 20.85 25.1658 19.61C24.4858 18.37 24.1458 16.83 24.1458 14.99C24.1458 12.21 24.8358 10.09 26.2158 8.63C27.5958 7.17 29.4058 6.44 31.6458 6.44ZM31.6458 9.23C30.6258 9.23 29.7958 9.56 29.1558 10.22C28.5358 10.86 28.1758 11.82 28.0758 13.1H35.0658C35.0458 11.98 34.7558 11.06 34.1958 10.34C33.6558 9.6 32.8058 9.23 31.6458 9.23ZM46.3174 23H42.5374V0.199998H46.3174V23ZM54.9307 23H51.1507V0.199998H54.9307V23ZM74.284 14.84C74.284 17.54 73.584 19.63 72.184 21.11C70.784 22.57 68.884 23.3 66.484 23.3C65.004 23.3 63.684 22.97 62.524 22.31C61.364 21.65 60.454 20.69 59.794 19.43C59.134 18.17 58.804 16.64 58.804 14.84C58.804 12.14 59.494 10.07 60.874 8.63C62.274 7.17 64.174 6.44 66.574 6.44C68.074 6.44 69.404 6.77 70.564 7.43C71.724 8.07 72.634 9.02 73.294 10.28C73.954 11.52 74.284 13.04 74.284 14.84ZM62.674 14.84C62.674 16.56 62.974 17.89 63.574 18.83C64.194 19.77 65.184 20.24 66.544 20.24C67.904 20.24 68.884 19.77 69.484 18.83C70.104 17.89 70.414 16.56 70.414 14.84C70.414 13.12 70.104 11.8 69.484 10.88C68.884 9.96 67.894 9.5 66.514 9.5C65.174 9.5 64.194 9.96 63.574 10.88C62.974 11.8 62.674 13.12 62.674 14.84ZM82.1217 19.85C81.8417 20.91 81.4617 22.07 80.9817 23.33C80.5017 24.61 80.0217 25.79 79.5417 26.87H76.8117C77.0917 25.71 77.3717 24.45 77.6517 23.09C77.9317 21.75 78.1417 20.56 78.2817 19.52H81.9117L82.1217 19.85ZM28.44 46.58L22.89 68H18.66L15.27 55.7C15.15 55.3 15.02 54.79 14.88 54.17C14.74 53.53 14.61 52.91 14.49 52.31C14.37 51.71 14.29 51.27 14.25 50.99C14.21 51.27 14.13 51.71 14.01 52.31C13.91 52.89 13.78 53.5 13.62 54.14C13.48 54.78 13.35 55.32 13.23 55.76L9.93 68H5.67L0.15 46.58H3.99L6.93 58.79C7.07 59.31 7.2 59.9 7.32 60.56C7.46 61.22 7.59 61.88 7.71 62.54C7.83 63.18 7.92 63.74 7.98 64.22C8.04 63.72 8.13 63.14 8.25 62.48C8.37 61.82 8.5 61.18 8.64 60.56C8.78 59.92 8.91 59.38 9.03 58.94L12.39 46.58H16.11L19.53 58.97C19.67 59.41 19.81 59.96 19.95 60.62C20.09 61.26 20.22 61.9 20.34 62.54C20.46 63.18 20.55 63.74 20.61 64.22C20.67 63.72 20.75 63.15 20.85 62.51C20.97 61.87 21.1 61.22 21.24 60.56C21.38 59.9 21.52 59.31 21.66 58.79L24.6 46.58H28.44ZM36.9778 51.44C39.1578 51.44 40.8778 52.09 42.1378 53.39C43.4178 54.69 44.0578 56.5 44.0578 58.82V60.74H33.3178C33.3578 62.22 33.7678 63.37 34.5478 64.19C35.3278 64.99 36.4078 65.39 37.7878 65.39C38.8278 65.39 39.7678 65.29 40.6078 65.09C41.4478 64.87 42.3078 64.56 43.1878 64.16V67.19C42.3878 67.57 41.5578 67.85 40.6978 68.03C39.8378 68.21 38.8078 68.3 37.6078 68.3C36.0278 68.3 34.6178 68 33.3778 67.4C32.1578 66.78 31.1978 65.85 30.4978 64.61C29.8178 63.37 29.4778 61.83 29.4778 59.99C29.4778 57.21 30.1678 55.09 31.5478 53.63C32.9278 52.17 34.7378 51.44 36.9778 51.44ZM36.9778 54.23C35.9578 54.23 35.1278 54.56 34.4878 55.22C33.8678 55.86 33.5078 56.82 33.4078 58.1H40.3978C40.3778 56.98 40.0878 56.06 39.5278 55.34C38.9878 54.6 38.1378 54.23 36.9778 54.23ZM51.6495 68H47.8695V45.2H51.6495V68ZM63.0527 68.3C60.7127 68.3 58.8727 67.63 57.5327 66.29C56.1927 64.95 55.5227 62.84 55.5227 59.96C55.5227 57.96 55.8527 56.34 56.5127 55.1C57.1927 53.84 58.1227 52.92 59.3027 52.34C60.4827 51.74 61.8327 51.44 63.3527 51.44C64.3727 51.44 65.2827 51.54 66.0827 51.74C66.8827 51.94 67.5627 52.18 68.1227 52.46L67.0127 55.43C66.3927 55.19 65.7727 54.99 65.1527 54.83C64.5327 54.65 63.9327 54.56 63.3527 54.56C60.7127 54.56 59.3927 56.35 59.3927 59.93C59.3927 61.67 59.7227 62.98 60.3827 63.86C61.0627 64.74 62.0327 65.18 63.2927 65.18C64.1927 65.18 64.9927 65.07 65.6927 64.85C66.3927 64.63 67.0627 64.33 67.7027 63.95V67.22C67.0827 67.58 66.4127 67.85 65.6927 68.03C64.9927 68.21 64.1127 68.3 63.0527 68.3ZM86.032 59.84C86.032 62.54 85.332 64.63 83.932 66.11C82.532 67.57 80.632 68.3 78.232 68.3C76.752 68.3 75.432 67.97 74.272 67.31C73.112 66.65 72.202 65.69 71.542 64.43C70.882 63.17 70.552 61.64 70.552 59.84C70.552 57.14 71.242 55.07 72.622 53.63C74.022 52.17 75.922 51.44 78.322 51.44C79.822 51.44 81.152 51.77 82.312 52.43C83.472 53.07 84.382 54.02 85.042 55.28C85.702 56.52 86.032 58.04 86.032 59.84ZM74.422 59.84C74.422 61.56 74.722 62.89 75.322 63.83C75.942 64.77 76.932 65.24 78.292 65.24C79.652 65.24 80.632 64.77 81.232 63.83C81.852 62.89 82.162 61.56 82.162 59.84C82.162 58.12 81.852 56.8 81.232 55.88C80.632 54.96 79.642 54.5 78.262 54.5C76.922 54.5 75.942 54.96 75.322 55.88C74.722 56.8 74.422 58.12 74.422 59.84ZM108.57 51.44C110.41 51.44 111.79 51.91 112.71 52.85C113.65 53.79 114.12 55.31 114.12 57.41V68H110.34V58.13C110.34 55.71 109.42 54.5 107.58 54.5C106.26 54.5 105.32 54.93 104.76 55.79C104.2 56.65 103.92 57.9 103.92 59.54V68H100.14V58.13C100.14 55.71 99.2098 54.5 97.3498 54.5C95.9698 54.5 95.0198 54.98 94.4998 55.94C93.9798 56.9 93.7198 58.27 93.7198 60.05V68H89.9398V51.74H92.8498L93.3898 53.87H93.5998C94.0798 53.03 94.7498 52.42 95.6098 52.04C96.4898 51.64 97.3998 51.44 98.3398 51.44C99.5598 51.44 100.58 51.65 101.4 52.07C102.24 52.47 102.88 53.1 103.32 53.96H103.62C104.12 53.08 104.82 52.44 105.72 52.04C106.62 51.64 107.57 51.44 108.57 51.44ZM125.396 51.44C127.576 51.44 129.296 52.09 130.556 53.39C131.836 54.69 132.476 56.5 132.476 58.82V60.74H121.736C121.776 62.22 122.186 63.37 122.966 64.19C123.746 64.99 124.826 65.39 126.206 65.39C127.246 65.39 128.186 65.29 129.026 65.09C129.866 64.87 130.726 64.56 131.606 64.16V67.19C130.806 67.57 129.976 67.85 129.116 68.03C128.256 68.21 127.226 68.3 126.026 68.3C124.446 68.3 123.036 68 121.796 67.4C120.576 66.78 119.616 65.85 118.916 64.61C118.236 63.37 117.896 61.83 117.896 59.99C117.896 57.21 118.586 55.09 119.966 53.63C121.346 52.17 123.156 51.44 125.396 51.44ZM125.396 54.23C124.376 54.23 123.546 54.56 122.906 55.22C122.286 55.86 121.926 56.82 121.826 58.1H128.816C128.796 56.98 128.506 56.06 127.946 55.34C127.406 54.6 126.556 54.23 125.396 54.23ZM139.497 61.31H136.617L135.867 46.58H140.247L139.497 61.31ZM135.747 66.08C135.747 65.24 135.967 64.65 136.407 64.31C136.847 63.95 137.397 63.77 138.057 63.77C138.657 63.77 139.187 63.95 139.647 64.31C140.107 64.65 140.337 65.24 140.337 66.08C140.337 66.9 140.107 67.49 139.647 67.85C139.187 68.21 138.657 68.39 138.057 68.39C137.397 68.39 136.847 68.21 136.407 67.85C135.967 67.49 135.747 66.9 135.747 66.08Z" fill="#3EB09B"/>
</svg>
